<svg id="Capa_1" data-name="Capa 1" xmlns="http://www.w3.org/2000/svg" viewBox="0 0 1000 1000"><defs><style>.cls-1{fill:#ccc;}</style></defs><path class="cls-1" d="M927,145.06c-49.32-56-117.75-86.79-192.66-86.79C629,58.27,562.3,121.2,524.89,174A383.59,383.59,0,0,0,500,214.36,383.59,383.59,0,0,0,475.11,174C437.7,121.2,371,58.27,265.62,58.27,190.71,58.27,122.28,89.1,73,145.06,25.91,198.45,0,270,0,346.39,0,429.6,32.49,507,102.24,589.94c62.33,74.14,152,150.57,255.87,239.06,38.69,33,78.71,67.08,121.31,104.35l1.28,1.12a29.28,29.28,0,0,0,38.6,0l1.28-1.12C563.18,896.08,603.2,862,641.9,829c103.84-88.49,193.53-164.91,255.86-239.06C967.51,507,1000,429.6,1000,346.39,1000,270,974.09,198.45,927,145.06Z"/></svg>