<svg id="Capa_1" data-name="Capa 1" xmlns="http://www.w3.org/2000/svg" viewBox="0 0 1000 1000"><defs><style>.cls-1{fill:#fff;}</style></defs><path class="cls-1" d="M922.45,147.21h0C869,86.54,794.82,53.12,713.65,53.12c-51.84,0-99.86,14.06-142.72,41.79C544.83,111.79,521,133.48,500,159.56c-21-26.08-44.83-47.77-70.93-64.65-42.86-27.73-90.88-41.79-142.72-41.79-81.17,0-155.32,33.42-208.8,94.09C27.54,204,0,279.52,0,360c0,44.27,8.57,86.21,26.2,128.21,17.06,40.65,42.37,80.64,77.37,122.26C162.76,680.84,245.81,751.61,342,833.57c35.17,30,71.53,60.95,110.11,94.72l1.19,1a70.92,70.92,0,0,0,93.44,0l1.14-1c38.5-33.69,74.76-64.59,109.84-94.48l.32-.27c96.16-81.95,179.21-152.71,238.4-223.12,35-41.62,60.31-81.61,77.37-122.26,17.63-42,26.2-83.94,26.2-128.21C1000,279.52,972.46,204,922.45,147.21ZM184,241c26.16-29.68,62.53-46,102.39-46,43.62,0,81.07,21.63,111.3,64.3a270.29,270.29,0,0,1,34.92,69.42,70.92,70.92,0,0,0,134.86,0,270.14,270.14,0,0,1,34.92-69.43C632.58,216.59,670,195,713.65,195c39.86,0,76.22,16.35,102.39,46,27.16,30.83,42.12,73.08,42.12,119C858.16,476.67,742,575.7,566,725.6c-21.41,18.24-43.32,36.92-66,56.47-22.7-19.54-44.62-38.22-66-56.47C258.05,575.7,141.84,476.67,141.84,360,141.84,314.07,156.8,271.82,184,241Z"/></svg>